<svg xmlns="http://www.w3.org/2000/svg" width="920" height="520" viewBox="0 0 920 520">
<rect width="100%" height="100%" fill="#f8fafc"/>
<rect x="20" y="20" width="880" height="480" rx="22" fill="#ffffff" stroke="#dbe4f0" stroke-width="2"/>
<text x="44" y="58" font-size="24" font-family="Segoe UI, Arial, sans-serif" fill="#0f172a">CDRE Run Overview</text>
<text x="44" y="84" font-size="14" font-family="Consolas, monospace" fill="#475569">csg_smoke_v1 / csg_smoke_v1-20260420T083453Z</text>
<text x="44" y="104" font-size="14" font-family="Segoe UI, Arial, sans-serif" fill="#334155">Survival 0.5 | Neutralized 3 | Leaks 1</text>
<rect x="44" y="118" width="610" height="330" rx="16" fill="#eff6ff" stroke="#bfdbfe"/>
<line x1="44.0" y1="118" x2="44.0" y2="448" stroke="#dbeafe"/>
<line x1="44" y1="118.0" x2="654" y2="118.0" stroke="#dbeafe"/>
<line x1="166.0" y1="118" x2="166.0" y2="448" stroke="#dbeafe"/>
<line x1="44" y1="184.0" x2="654" y2="184.0" stroke="#dbeafe"/>
<line x1="288.0" y1="118" x2="288.0" y2="448" stroke="#dbeafe"/>
<line x1="44" y1="250.0" x2="654" y2="250.0" stroke="#dbeafe"/>
<line x1="410.0" y1="118" x2="410.0" y2="448" stroke="#dbeafe"/>
<line x1="44" y1="316.0" x2="654" y2="316.0" stroke="#dbeafe"/>
<line x1="532.0" y1="118" x2="532.0" y2="448" stroke="#dbeafe"/>
<line x1="44" y1="382.0" x2="654" y2="382.0" stroke="#dbeafe"/>
<line x1="654.0" y1="118" x2="654.0" y2="448" stroke="#dbeafe"/>
<line x1="44" y1="448.0" x2="654" y2="448.0" stroke="#dbeafe"/>
<polyline points="138.17000000000002,300.55 138.17000000000002,300.55 138.17000000000002,300.55 138.17000000000002,300.55 138.17000000000002,300.55 138.17000000000002,300.55 138.17000000000002,300.55 138.17000000000002,300.55 138.17000000000002,300.55 138.17000000000002,300.55 138.17000000000002,300.55 138.17000000000002,300.55 138.17000000000002,300.55" fill="none" stroke="#93c5fd" stroke-width="3" stroke-linecap="round"/>
<polyline points="184.0,328.62 184.0,328.62 184.0,328.62 184.0,328.62 184.0,328.62 184.0,328.62 184.0,328.62 184.0,328.62 184.0,328.62 184.0,328.62 184.0,328.62 184.0,328.62 184.0,328.62" fill="none" stroke="#93c5fd" stroke-width="3" stroke-linecap="round"/>
<polyline points="495.67,223.34 475.82,227.63 455.97,231.92000000000002 436.12,236.2 416.26,240.49 396.41,244.78 376.56,249.06 356.71,253.35 336.86,257.64 317.01,261.91999999999996 317.01,261.91999999999996 317.01,261.91999999999996 317.01,261.91999999999996" fill="none" stroke="#fdba74" stroke-width="3" stroke-linecap="round"/>
<polyline points="514.0,202.29000000000002 496.78,208.88 479.56,215.47 462.35,222.06 445.13,228.65 427.91,235.24 410.69,241.82999999999998 393.48,248.43 376.26,255.02 359.04,261.61 341.82,268.2 322.97,271.19 304.13,274.19" fill="none" stroke="#fdba74" stroke-width="3" stroke-linecap="round"/>
<polyline points="559.83,300.55 518.5799999999999,300.55 477.33,300.55 436.08,300.55 394.83,300.55 353.58,300.55 312.33,300.55 312.33,300.55 312.33,300.55 312.33,300.55 312.33,300.55 312.33,300.55 312.33,300.55" fill="none" stroke="#fca5a5" stroke-width="3" stroke-linecap="round"/>
<polyline points="541.5,363.71000000000004 502.86,359.91999999999996 464.22,356.13 425.57,352.33000000000004 386.93,348.53999999999996 348.29,344.75 309.65,340.96000000000004 271.01,337.15999999999997 232.36,333.37 193.72,329.58000000000004 184.0,328.62 184.0,328.62 184.0,328.62" fill="none" stroke="#fca5a5" stroke-width="3" stroke-linecap="round"/>
<polyline points="138.17000000000002,300.55 217.72,317.28 295.90999999999997,337.41999999999996 271.01,337.15999999999997 271.01,337.15999999999997 271.01,337.15999999999997 271.01,337.15999999999997 271.01,337.15999999999997 271.01,337.15999999999997" fill="none" stroke="#86efac" stroke-width="3" stroke-linecap="round"/>
<polyline points="138.17000000000002,300.55 213.26,326.71000000000004 193.72,329.58000000000004 193.72,329.58000000000004 193.72,329.58000000000004 193.72,329.58000000000004" fill="none" stroke="#86efac" stroke-width="3" stroke-linecap="round"/>
<polyline points="138.17000000000002,300.55 218.95,287.72 299.73,274.89" fill="none" stroke="#86efac" stroke-width="3" stroke-linecap="round"/>
<polyline points="184.0,328.62 264.64,315.27 312.33,300.55 312.33,300.55 312.33,300.55 312.33,300.55 312.33,300.55 312.33,300.55 312.33,300.55" fill="none" stroke="#86efac" stroke-width="3" stroke-linecap="round"/>
<polyline points="184.0,328.62 254.54,295.86 317.01,261.91999999999996 317.01,261.91999999999996 317.01,261.91999999999996 317.01,261.91999999999996" fill="none" stroke="#86efac" stroke-width="3" stroke-linecap="round"/>
<rect x="130.17000000000002" y="292.55" width="16" height="16" rx="4" fill="#1d4ed8"/>
<text x="148.17000000000002" y="290.55" font-size="11" font-family="Consolas, monospace" fill="#0f172a">ship_alpha</text>
<rect x="176.0" y="320.62" width="16" height="16" rx="4" fill="#1d4ed8"/>
<text x="194.0" y="318.62" font-size="11" font-family="Consolas, monospace" fill="#0f172a">ship_bravo</text>
<circle cx="317.01" cy="261.91999999999996" r="7" fill="#f97316"/>
<text x="327.01" y="251.91999999999996" font-size="11" font-family="Consolas, monospace" fill="#0f172a">drone_01</text>
<circle cx="304.13" cy="274.19" r="7" fill="#f97316"/>
<text x="314.13" y="264.19" font-size="11" font-family="Consolas, monospace" fill="#0f172a">drone_02</text>
<polygon points="312.33,292.55 320.33,308.55 304.33,308.55" fill="#dc2626"/>
<text x="322.33" y="290.55" font-size="11" font-family="Consolas, monospace" fill="#0f172a">missile_01</text>
<polygon points="184.0,320.62 192.0,336.62 176.0,336.62" fill="#dc2626"/>
<text x="194.0" y="318.62" font-size="11" font-family="Consolas, monospace" fill="#0f172a">missile_02</text>
<polygon points="271.01,329.15999999999997 279.01,337.15999999999997 271.01,345.15999999999997 263.01,337.15999999999997" fill="#059669"/>
<text x="281.01" y="327.15999999999997" font-size="11" font-family="Consolas, monospace" fill="#0f172a">int-ship_alpha-3-0</text>
<polygon points="312.33,292.55 320.33,300.55 312.33,308.55 304.33,300.55" fill="#059669"/>
<text x="322.33" y="290.55" font-size="11" font-family="Consolas, monospace" fill="#0f172a">int-ship_bravo-3-1</text>
<polygon points="193.72,321.58000000000004 201.72,329.58000000000004 193.72,337.58000000000004 185.72,329.58000000000004" fill="#059669"/>
<text x="203.72" y="319.58000000000004" font-size="11" font-family="Consolas, monospace" fill="#0f172a">int-ship_alpha-6-2</text>
<polygon points="317.01,253.91999999999996 325.01,261.91999999999996 317.01,269.91999999999996 309.01,261.91999999999996" fill="#059669"/>
<text x="327.01" y="251.91999999999996" font-size="11" font-family="Consolas, monospace" fill="#0f172a">int-ship_bravo-6-3</text>
<polygon points="299.73,266.89 307.73,274.89 299.73,282.89 291.73,274.89" fill="#059669"/>
<text x="309.73" y="264.89" font-size="11" font-family="Consolas, monospace" fill="#0f172a">int-ship_alpha-9-4</text>
<text x="690" y="144" font-size="16" font-family="Segoe UI, Arial, sans-serif" fill="#0f172a">Legend</text>
<rect x="690" y="162" width="14" height="14" rx="3" fill="#1d4ed8"/>
<text x="714" y="174" font-size="13" font-family="Segoe UI, Arial, sans-serif" fill="#334155">Ship</text>
<rect x="690" y="190" width="14" height="14" rx="3" fill="#f97316"/>
<text x="714" y="202" font-size="13" font-family="Segoe UI, Arial, sans-serif" fill="#334155">Drone</text>
<rect x="690" y="218" width="14" height="14" rx="3" fill="#dc2626"/>
<text x="714" y="230" font-size="13" font-family="Segoe UI, Arial, sans-serif" fill="#334155">Missile</text>
<rect x="690" y="246" width="14" height="14" rx="3" fill="#059669"/>
<text x="714" y="258" font-size="13" font-family="Segoe UI, Arial, sans-serif" fill="#334155">Interceptor</text>
</svg>
